HIERARCHY
ROOT hip
{
  OFFSET 0 0 0
  CHANNELS 6 Xposition Yposition Zposition Zrotation Yrotation Xrotation
  JOINT abdomen
  {
    OFFSET 0 20.6881 -0.73152
    CHANNELS 3 Zrotation Xrotation Yrotation
    JOINT chest
    {
      OFFSET 0 11.7043 -0.48768
      CHANNELS 3 Zrotation Xrotation Yrotation
      JOINT neck
      {
        OFFSET 0 22.1894 -2.19456
        CHANNELS 3 Zrotation Xrotation Yrotation
        JOINT head
        {
          OFFSET -0.24384 7.07133 1.2192
          CHANNELS 3 Zrotation Xrotation Yrotation
          JOINT leftEye
          {
            OFFSET 4.14528 8.04674 8.04672
            CHANNELS 3 Zrotation Xrotation Yrotation
            End Site
            {
              OFFSET 1 0 0
            }
          }
          JOINT rightEye
          {
            OFFSET -3.6576 8.04674 8.04672
            CHANNELS 3 Zrotation Xrotation Yrotation
            End Site
            {
              OFFSET 1 0 0
            }
          }
        }
      }
      JOINT rCollar
      {
        OFFSET -2.68224 19.2634 -4.8768
        CHANNELS 3 Zrotation Xrotation Yrotation
        JOINT rShldr
        {
          OFFSET -8.77824 -1.95073 1.46304
          CHANNELS 3 Zrotation Xrotation Yrotation
          JOINT rForeArm
          {
            OFFSET -28.1742 -1.7115 0.48768
            CHANNELS 3 Zrotation Xrotation Yrotation
            JOINT rHand
            {
              OFFSET -22.5879 0.773209 7.07136
              CHANNELS 3 Zrotation Xrotation Yrotation
              JOINT rThumb1
              {
                OFFSET -1.2192 -0.487915 3.41376
                CHANNELS 3 Zrotation Xrotation Yrotation
                JOINT rThumb2
                {
                  OFFSET -3.37035 -0.52449 3.41376
                  CHANNELS 3 Zrotation Xrotation Yrotation
                  End Site
                  {
                    OFFSET -1.78271 -1.18214 1.43049
                  }
                }
              }
              JOINT rIndex1
              {
                OFFSET -7.75947 0.938293 5.60832
                CHANNELS 3 Zrotation Xrotation Yrotation
                JOINT rIndex2
                {
                  OFFSET -2.54057 -0.884171 1.56538
                  CHANNELS 3 Zrotation Xrotation Yrotation
                  End Site
                  {
                    OFFSET -1.62519 -0.234802 1.16502
                  }
                }
              }
              JOINT rMid1
              {
                OFFSET -8.24714 1.18213 3.41376
                CHANNELS 3 Zrotation Xrotation Yrotation
                JOINT rMid2
                {
                  OFFSET -3.10165 -0.590103 1.0647
                  CHANNELS 3 Zrotation Xrotation Yrotation
                  End Site
                  {
                    OFFSET -2.48547 -0.328903 0.83742
                  }
                }
              }
              JOINT rRing1
              {
                OFFSET -8.82822 0.546677 1.51678
                CHANNELS 3 Zrotation Xrotation Yrotation
                JOINT rRing2
                {
                  OFFSET -2.60934 -0.819778 -0.0198488
                  CHANNELS 3 Zrotation Xrotation Yrotation
                  End Site
                  {
                    OFFSET -2.33842 -0.294052 0.168128
                  }
                }
              }
              JOINT rPinky1
              {
                OFFSET -8.27202 -0.0477905 -0.4584
                CHANNELS 3 Zrotation Xrotation Yrotation
                JOINT rPinky2
                {
                  OFFSET -1.82734 -0.647385 -0.700984
                  CHANNELS 3 Zrotation Xrotation Yrotation
                  End Site
                  {
                    OFFSET -1.69225 -0.51767 -0.607171
                  }
                }
              }
            }
          }
        }
      }
      JOINT lCollar
      {
        OFFSET 2.68224 19.2634 -4.8768
        CHANNELS 3 Zrotation Xrotation Yrotation
        JOINT lShldr
        {
          OFFSET 8.77824 -1.95073 1.46304
          CHANNELS 3 Zrotation Xrotation Yrotation
          JOINT lForeArm
          {
            OFFSET 28.1742 -1.7115 0.48768
            CHANNELS 3 Zrotation Xrotation Yrotation
            JOINT lHand
            {
              OFFSET 22.5879 0.773209 7.07136
              CHANNELS 3 Zrotation Xrotation Yrotation
              JOINT lThumb1
              {
                OFFSET 1.2192 -0.487915 3.41376
                CHANNELS 3 Zrotation Xrotation Yrotation
                JOINT lThumb2
                {
                  OFFSET 3.37035 -0.52449 3.41376
                  CHANNELS 3 Zrotation Xrotation Yrotation
                  End Site
                  {
                    OFFSET 1.78271 -1.18214 1.43049
                  }
                }
              }
              JOINT lIndex1
              {
                OFFSET 7.75947 0.938293 5.60832
                CHANNELS 3 Zrotation Xrotation Yrotation
                JOINT lIndex2
                {
                  OFFSET 2.54057 -0.884171 1.56538
                  CHANNELS 3 Zrotation Xrotation Yrotation
                  End Site
                  {
                    OFFSET 1.62519 -0.234802 1.16502
                  }
                }
              }
              JOINT lMid1
              {
                OFFSET 8.24714 1.18213 3.41376
                CHANNELS 3 Zrotation Xrotation Yrotation
                JOINT lMid2
                {
                  OFFSET 3.10165 -0.590103 1.0647
                  CHANNELS 3 Zrotation Xrotation Yrotation
                  End Site
                  {
                    OFFSET 2.48547 -0.328903 0.83742
                  }
                }
              }
              JOINT lRing1
              {
                OFFSET 8.82822 0.546677 1.51678
                CHANNELS 3 Zrotation Xrotation Yrotation
                JOINT lRing2
                {
                  OFFSET 2.60934 -0.819778 -0.0198488
                  CHANNELS 3 Zrotation Xrotation Yrotation
                  End Site
                  {
                    OFFSET 2.33842 -0.294052 0.168128
                  }
                }
              }
              JOINT lPinky1
              {
                OFFSET 8.27202 -0.0477905 -0.4584
                CHANNELS 3 Zrotation Xrotation Yrotation
                JOINT lPinky2
                {
                  OFFSET 1.82734 -0.647385 -0.700984
                  CHANNELS 3 Zrotation Xrotation Yrotation
                  End Site
                  {
                    OFFSET 1.69225 -0.51767 -0.607171
                  }
                }
              }
            }
          }
        }
      }
    }
  }
  JOINT rButtock
  {
    OFFSET -8.77824 4.35084 1.2192
    CHANNELS 3 Zrotation Xrotation Yrotation
    JOINT rThigh
    {
      OFFSET 0 -1.70687 -2.19456
      CHANNELS 3 Zrotation Xrotation Yrotation
      JOINT rShin
      {
        OFFSET 0 -36.8199 0.73152
        CHANNELS 3 Zrotation Xrotation Yrotation
        JOINT rFoot
        {
          OFFSET 0.73152 -45.1104 -5.12064
          CHANNELS 3 Zrotation Xrotation Yrotation
          End Site
          {
            OFFSET -1.1221 -3.69964 12.103
          }
        }
      }
    }
  }
  JOINT lButtock
  {
    OFFSET 8.77824 4.35084 1.2192
    CHANNELS 3 Zrotation Xrotation Yrotation
    JOINT lThigh
    {
      OFFSET 0 -1.70687 -2.19456
      CHANNELS 3 Zrotation Xrotation Yrotation
      JOINT lShin
      {
        OFFSET 0 -36.8199 0.73152
        CHANNELS 3 Zrotation Xrotation Yrotation
        JOINT lFoot
        {
          OFFSET -0.73152 -45.1104 -5.12064
          CHANNELS 3 Zrotation Xrotation Yrotation
          End Site
          {
            OFFSET 1.1221 -3.69964 12.103
          }
        }
      }
    }
  }
}
MOTION
Frames:	6
Frame Time:	0.00833333
31.3725 85.1237 20.7694 0.0 0.0 0.0 0.435973 -0.0238512 0.0128201 0.121275 -0.0396248 0.0210494 5.51837e-15 -1.59028e-15 -9.93923e-17 1.65022e-14 3.18055e-15 -3.01283e-16 -0.0 0.0 0.0 -0.0 0.0 0.0 2.68265e-15 5.08609e-17 9.93923e-17 6.04065e-14 7.64079e-16 0.0 9.90991e-13 -2.60408e-13 -2.22639e-14 1.12432e-11 4.57006e-13 -1.97194e-13 2.65349e-11 4.27337e-13 -4.80264e-13 4.58139e-11 7.41069e-13 -8.341e-13 2.65425e-11 4.29772e-13 -4.89805e-13 7.73091 5.47488 0.417314 2.65343e-11 4.27685e-13 -4.80264e-13 2.90554 0.965183 0.102902 2.65428e-11 4.28182e-13 -4.81059e-13 10.2786 0.731801 0.0259123 2.65334e-11 4.29772e-13 -4.77083e-13 2.22167 -0.733487 -0.20892 2.68472e-15 4.96962e-17 -1.98785e-16 5.53181e-14 6.39838e-16 -1.59028e-15 9.74144e-13 3.26007e-13 -3.81667e-14 1.12548e-11 -1.32291e-13 -1.78111e-13 2.65296e-11 4.23647e-13 -4.83444e-13 4.58234e-11 7.34708e-13 -8.37281e-13 2.65242e-11 4.26592e-13 -4.73903e-13 -7.73091 5.47488 -0.417314 2.65302e-11 4.24107e-13 -4.83444e-13 -2.90554 0.965183 -0.102902 2.65196e-11 4.24306e-13 -4.82649e-13 -10.2786 0.731801 -0.0259123 2.65264e-11 4.23014e-13 -4.92986e-13 -2.22167 -0.733487 0.20892 -2.03217e-16 0.0 -3.88251e-19 0.651928 -4.7111 -0.0694747 -0.000843665 2.99808 0.00382259 -0.32632 1.72324 0.06978 2.03217e-16 0.0 3.88251e-19 0.0330875 -2.68025 0.0231613 0.00579536 -0.679762 0.0505454 0.296213 3.3702 -0.0966875
25.7233 83.5595 6.20877 -171.638 -54.8022 -178.863 2.22452 0.187199 1.07933 0.461282 -4.23521 0.317965 -1.8809 0.291037 -2.08621 1.73093 2.02382 -4.16943 -0.0 0.0 0.0 -0.0 0.0 0.0 3.22221e-14 -1.15453e-13 1.55308e-13 17.7973 12.332 -4.03409 -6.74598 -3.81924 9.59003 0.0468663 -4.80527 -0.666787 -4.46354e-10 -3.19028e-10 3.59922e-10 -7.75122e-10 -5.47977e-10 6.17475e-10 -4.46348e-10 -3.19025e-10 3.59913e-10 7.73091 5.47488 0.417314 -4.46355e-10 -3.1903e-10 3.59926e-10 2.90554 0.965183 0.102902 -4.46346e-10 -3.19027e-10 3.59921e-10 10.2786 0.731801 0.0259123 -4.46358e-10 -3.19025e-10 3.59928e-10 2.22167 -0.733487 -0.20892 3.22037e-14 -1.15451e-13 1.55018e-13 -21.1827 5.6514 3.47524 5.12741 -2.54434 -7.76199 -0.0119341 2.42366 -0.339523 -7.13579e-10 -4.73002e-10 -1.19147e-10 -1.23469e-09 -8.18675e-10 -1.99678e-10 -7.13583e-10 -4.72999e-10 -1.19137e-10 -7.73091 5.47488 -0.417314 -7.13578e-10 -4.73001e-10 -1.19144e-10 -2.90554 0.965183 -0.102902 -7.13587e-10 -4.73001e-10 -1.19146e-10 -10.2786 0.731801 -0.0259123 -7.1358e-10 -4.73002e-10 -1.19155e-10 -2.22167 -0.733487 0.20892 -2.03217e-16 0.0 -3.88251e-19 3.81857 -8.8695 5.49141 -0.0391442 3.83555 -0.269038 -0.561609 -9.73311 -8.59947 2.03217e-16 0.0 3.88251e-19 -0.522451 -3.48865 -4.128 0.0432961 1.93567 0.130078 -0.129154 -5.46714 0.998507
26.0314 83.595 6.9949 -171.86 -54.6511 -178.337 4.13379 0.404849 2.20714 0.863322 -8.6702 0.636933 -3.84958 0.610297 -4.29154 3.8733 4.12711 -8.59491 -0.0 0.0 0.0 -0.0 0.0 0.0 6.5098e-14 -2.44008e-13 3.21205e-13 38.6666 25.1502 -8.96787 -12.4897 -7.48453 19.8412 -0.0268471 -9.88036 -1.38708 -9.5533e-10 -6.69373e-10 7.5089e-10 -1.65872e-09 -1.14986e-09 1.28827e-09 -9.55324e-10 -6.6937e-10 7.50881e-10 7.73091 5.47488 0.417314 -9.55331e-10 -6.69378e-10 7.50899e-10 2.90554 0.965183 0.102902 -9.55321e-10 -6.69371e-10 7.50888e-10 10.2786 0.731801 0.0259123 -9.55336e-10 -6.6937e-10 7.50898e-10 2.22167 -0.733487 -0.20892 6.50574e-14 -2.44002e-13 3.20922e-13 -44.3506 11.5685 7.25739 9.81242 -5.08406 -16.0267 0.00678602 4.98381 -0.700231 -1.49425e-09 -9.67913e-10 -2.7287e-10 -2.58562e-09 -1.67518e-09 -4.58854e-10 -1.49426e-09 -9.67911e-10 -2.7286e-10 -7.73091 5.47488 -0.417314 -1.49425e-09 -9.67912e-10 -2.72865e-10 -2.90554 0.965183 -0.102902 -1.49426e-09 -9.67913e-10 -2.72869e-10 -10.2786 0.731801 -0.0259123 -1.49425e-09 -9.67913e-10 -2.72877e-10 -2.22167 -0.733487 0.20892 -2.03217e-16 0.0 -3.88251e-19 8.09642 -13.0528 11.5298 -0.0713612 4.73116 -0.561339 -4.7415 -20.9435 -18.8548 2.03217e-16 0.0 3.88251e-19 -1.21678 -4.2772 -8.51645 0.0755531 4.71956 0.215584 -0.221309 -14.806 2.16265
26.3786 83.6088 7.74878 -172.048 -54.4266 -177.813 5.77805 0.608443 3.21251 1.27454 -12.6249 0.93172 -5.57926 0.868482 -6.25926 6.07266 5.94273 -12.5691 -0.0 0.0 0.0 -0.0 0.0 0.0 9.1301e-14 -3.4646e-13 4.65724e-13 59.6065 36.1717 -14.7026 -16.5318 -10.1752 29.2082 -0.20413 -14.4079 -2.05808 -1.39213e-09 -9.57939e-10 1.08073e-09 -2.41699e-09 -1.64541e-09 1.85409e-09 -1.39213e-09 -9.57935e-10 1.08072e-09 7.73091 5.47488 0.417314 -1.39213e-09 -9.57946e-10 1.08074e-09 2.90554 0.965183 0.102902 -1.39212e-09 -9.57937e-10 1.08072e-09 10.2786 0.731801 0.0259123 -1.39214e-09 -9.57936e-10 1.08074e-09 2.22167 -0.733487 -0.20892 9.12417e-14 -3.46452e-13 4.65452e-13 -65.6688 16.6993 10.8372 13.3642 -7.07388 -23.4519 0.0509601 7.26996 -1.02591 -2.1938e-09 -1.41985e-09 -3.56473e-10 -3.79573e-09 -2.45749e-09 -5.97359e-10 -2.1938e-09 -1.41985e-09 -3.56463e-10 -7.73091 5.47488 -0.417314 -2.1938e-09 -1.41985e-09 -3.56466e-10 -2.90554 0.965183 -0.102902 -2.1938e-09 -1.41985e-09 -3.56472e-10 -10.2786 0.731801 -0.0259123 -2.19379e-09 -1.41985e-09 -3.56479e-10 -2.22167 -0.733487 0.20892 -2.03217e-16 0.0 -3.88251e-19 12.625 -16.5807 17.1488 -0.091709 5.51007 -0.816714 -12.281 -29.4026 -29.6907 2.03217e-16 0.0 3.88251e-19 -1.9821 -5.01242 -12.4557 0.0963496 7.16645 0.291202 0.102234 -23.1067 3.45218
26.7312 83.6192 8.44748 -172.2 -54.2028 -177.354 6.7755 0.777671 3.91159 1.61396 -15.3804 1.14727 -6.76064 0.978853 -7.63222 7.79541 7.16182 -15.3572 -0.0 0.0 0.0 -0.0 0.0 0.0 1.00822e-13 -3.83659e-13 5.56796e-13 76.0422 43.4682 -20.0162 -18.8492 -11.6298 35.9543 -0.394415 -17.574 -2.55119 -1.6485e-09 -1.09206e-09 1.25774e-09 -2.86196e-09 -1.87512e-09 2.15747e-09 -1.6485e-09 -1.09205e-09 1.25773e-09 7.73091 5.47488 0.417314 -1.6485e-09 -1.09206e-09 1.25775e-09 2.90554 0.965183 0.102902 -1.64849e-09 -1.09205e-09 1.25773e-09 10.2786 0.731801 0.0259123 -1.64851e-09 -1.09205e-09 1.25775e-09 2.22167 -0.733487 -0.20892 1.00752e-13 -3.8365e-13 5.56547e-13 -80.8388 20.1065 13.516 15.497 -8.2282 -28.618 0.0975247 8.8721 -1.25705 -2.6905e-09 -1.76436e-09 -2.64775e-10 -4.65379e-09 -3.05436e-09 -4.34185e-10 -2.6905e-09 -1.76436e-09 -2.64765e-10 -7.73091 5.47488 -0.417314 -2.6905e-09 -1.76436e-09 -2.64768e-10 -2.90554 0.965183 -0.102902 -2.6905e-09 -1.76436e-09 -2.64775e-10 -10.2786 0.731801 -0.0259123 -2.69049e-09 -1.76436e-09 -2.64781e-10 -2.22167 -0.733487 0.20892 -2.03217e-16 0.0 -3.88251e-19 16.0653 -19.0028 21.275 -0.10028 5.99758 -0.978113 -19.8427 -34.1772 -38.2672 2.03217e-16 0.0 3.88251e-19 -2.70767 -5.68648 -15.2552 0.104678 8.77092 0.340034 0.774135 -28.8365 4.82699
27.0471 83.6375 9.13524 -172.472 -53.9233 -176.831 6.86372 0.902437 4.18303 1.81919 -16.4504 1.24004 -7.20641 0.880555 -8.17586 8.5899 7.61641 -16.4469 -0.0 0.0 0.0 -0.0 0.0 0.0 8.40471e-14 -3.17821e-13 5.74677e-13 83.0581 46.2951 -22.4766 -19.7467 -12.1871 38.871 -0.487375 -18.863 -2.75883 -1.66172e-09 -9.87529e-10 1.21258e-09 -2.88465e-09 -1.69352e-09 2.07905e-09 -1.66172e-09 -9.87527e-10 1.21257e-09 7.73091 5.47488 0.417314 -1.66172e-09 -9.87533e-10 1.21259e-09 2.90554 0.965183 0.102902 -1.66171e-09 -9.87528e-10 1.21258e-09 10.2786 0.731801 0.0259123 -1.66173e-09 -9.87527e-10 1.21259e-09 2.22167 -0.733487 -0.20892 8.39831e-14 -3.17814e-13 5.74474e-13 -86.6901 21.2976 14.6754 16.2325 -8.59291 -30.5718 0.118906 9.47876 -1.34539 -2.96358e-09 -2.01565e-09 1.84436e-10 -5.12241e-09 -3.49104e-09 3.45945e-10 -2.96358e-09 -2.01565e-09 1.84444e-10 -7.73091 5.47488 -0.417314 -2.96358e-09 -2.01565e-09 1.8444e-10 -2.90554 0.965183 -0.102902 -2.96358e-09 -2.01565e-09 1.84434e-10 -10.2786 0.731801 -0.0259123 -2.96357e-09 -2.01565e-09 1.84427e-10 -2.22167 -0.733487 0.20892 -2.03217e-16 0.0 -3.88251e-19 17.2127 -20.2113 23.0677 -0.100083 6.03552 -1.00629 -23.5085 -36.3984 -41.4203 2.03217e-16 0.0 3.88251e-19 -3.29105 -6.33922 -16.4235 0.102345 9.20127 0.348794 1.55643 -30.9582 6.14473
